# xmcd CD database file
#
# Track frame offsets:
#	150
#	18092
#	38737
#	56142
#	77548
#	95727
#	115829
#	134282
#	145775
#	156540
#	176808
#	197400
#	214890
#
# Disc length: 3125 seconds
#
# Revision: 1
# Processed by: cddbd v1.5.2PL0 Copyright (c) Steve Scherf et al.
# Submitted via: CDex 1.70beta2
#
DISCID=b30c330d
DTITLE=Bridge Band Praha - Bridge Band 2016
DYEAR=2016
DGENRE=Jazz
TTITLE0=Ain't she sweet
TTITLE1=Alexanders ragtime band
TTITLE2=Shine
TTITLE3=Nevertheles
TTITLE4=Louisiana
TTITLE5=I got rhytm
TTITLE6=Caravan
TTITLE7=Bel ami
TTITLE8=Wild cat blues
TTITLE9=Tipperary
TTITLE10=I cant give you anything but love
TTITLE11=Yes sir that's my baby
TTITLE12=Bye bye blues
EXTD=YEAR: 2016
EXTT0=
EXTT1=
EXTT2=
EXTT3=
EXTT4=
EXTT5=
EXTT6=
EXTT7=
EXTT8=
EXTT9=
EXTT10=
EXTT11=
EXTT12=
PLAYORDER=
